<svg width="480" height="640" fill="none" xmlns="http://www.w3.org/2000/svg"><path fill-rule="evenodd" clip-rule="evenodd" d="M320 0c-88.37 0-160 71.63-160 160h320C480 71.63 408.37 0 320 0Zm0 80a80 80 0 0 0-80 80h160a80 80 0 0 0-80-80Z" fill="#726CEE"/><circle cx="80" cy="240" r="80" fill="#151515"/><circle cx="80" cy="80" r="78.5" stroke="#151515" stroke-width="3"/><circle cx="80" cy="80" r="38.5" stroke="#151515" stroke-width="3"/><path fill-rule="evenodd" clip-rule="evenodd" d="m0 320 160 .5V480L0 320Z" fill="#4BB1DA"/><path fill="#EDD556" d="M0 400h80v80H0z"/><path fill-rule="evenodd" clip-rule="evenodd" d="m160 480-160 .5V640l160-160Z" fill="#8E4CB6"/><rect x="161.5" y="481.5" width="317" height="157" rx="78.5" stroke="#151515" stroke-width="3"/><rect x="321.5" y="481.5" width="157" height="157" rx="78.5" stroke="#151515" stroke-width="3"/><circle cx="400" cy="560" r="40" fill="#151515"/><circle cx="240" cy="560" r="38.5" stroke="#151515" stroke-width="3"/><path d="m240 560 80.5.5M81.5 80.5l-1 320" stroke="#151515" stroke-width="3"/><circle cx="80" cy="240" r="38.5" stroke="#FAFAFA" stroke-width="3"/><path fill="#726CEE" d="M81 560h80v80H81z"/></svg>