<svg width="84" height="27" fill="none" xmlns="http://www.w3.org/2000/svg"><g fill="#151515"><path d="M8.85 19.42c-1.1 0-2.17-.13-3.2-.39a9.65 9.65 0 0 1-2.76-1.13 5.88 5.88 0 0 1-1.92-1.88 4.85 4.85 0 0 1-.71-2.64v-.31h5.39v.24c0 .68.3 1.17.9 1.49.6.31 1.42.47 2.44.47.54 0 1.06-.05 1.55-.16.5-.11.9-.3 1.23-.55.32-.25.48-.57.48-.95 0-.62-.34-1.06-1.03-1.31-.68-.26-1.77-.52-3.28-.77-.85-.14-1.71-.34-2.59-.6-.87-.25-1.68-.6-2.41-1.02a5.28 5.28 0 0 1-1.77-1.63 4.21 4.21 0 0 1-.67-2.4c0-1.26.39-2.33 1.15-3.19A7.1 7.1 0 0 1 4.7.73a12.69 12.69 0 0 1 8.28.06 7.53 7.53 0 0 1 3.07 2.08c.78.9 1.17 2 1.17 3.27V6.38h-5.34v-.21c0-.46-.15-.84-.45-1.13a2.8 2.8 0 0 0-1.13-.66 4.62 4.62 0 0 0-1.41-.22c-.45 0-.9.05-1.38.15-.47.1-.87.26-1.2.49a1.1 1.1 0 0 0-.49.95c0 .4.18.72.53.97.35.25.84.46 1.47.62.63.15 1.36.3 2.19.44.78.13 1.6.3 2.47.54.87.22 1.69.54 2.45.96.77.41 1.39.96 1.86 1.63.47.67.7 1.52.7 2.54 0 1.06-.24 1.97-.73 2.73a5.6 5.6 0 0 1-1.98 1.85c-.84.47-1.77.82-2.79 1.05a14.4 14.4 0 0 1-3.14.34Z"/><path fill-rule="evenodd" clip-rule="evenodd" d="M33.48 11.1V19h5.4V7.36c0-1.46-.24-2.73-.72-3.82a5.61 5.61 0 0 0-2.2-2.56 7.04 7.04 0 0 0-3.78-.91 7.84 7.84 0 0 0-6.37 3.18V.42H20.4V19h5.42V9.27c0-.9.17-1.7.5-2.38a3.75 3.75 0 0 1 3.58-2.19c.97 0 1.71.2 2.22.58.52.38.87.9 1.07 1.53.2.64.3 1.34.3 2.11V11.1ZM25.8 9.28V3.25a8.32 8.32 0 0 0-1.5 4.94l1.5 1.08ZM45.16 18.74a11.25 11.25 0 0 0 6.84.2c1-.3 1.87-.72 2.6-1.28.25-.2.49-.4.7-.63.04.2.1.38.16.57a3.96 3.96 0 0 0 .8 1.4h5.35a3.74 3.74 0 0 1-.88-1.57c-.1-.37-.17-.77-.2-1.2-.03-.44-.04-.9-.04-1.38V6.82c0-1.53-.43-2.79-1.27-3.78A7.7 7.7 0 0 0 55.87.81c-1.4-.5-2.9-.74-4.54-.74-1.75 0-3.32.26-4.7.8a7.5 7.5 0 0 0-3.3 2.33 5.91 5.91 0 0 0-1.22 3.78h5.34c0-.92.33-1.61.99-2.06a5.07 5.07 0 0 1 2.86-.67c1.18 0 2.1.2 2.75.6.66.39 1 .93 1 1.62v.03c0 .41-.4.7-1.17.86-.78.17-2.19.35-4.23.54-1.4.14-2.7.43-3.9.87a6.86 6.86 0 0 0-2.87 1.9 4.72 4.72 0 0 0-1.08 3.22c0 1.17.3 2.16.89 2.97a5.6 5.6 0 0 0 2.47 1.88Zm7.46-3.88c-.74.31-1.54.46-2.39.46-1 0-1.74-.16-2.24-.48a1.6 1.6 0 0 1-.75-1.44c0-.68.3-1.16.88-1.44a8.25 8.25 0 0 1 2.67-.6 41.76 41.76 0 0 0 4.34-.72v.15c0 1.08-.23 1.95-.7 2.61a4.1 4.1 0 0 1-1.81 1.46Zm2.51-4.22c.48-.12.93-.26 1.35-.4l-1.35-1.32v1.72ZM71.11 18.24a7.32 7.32 0 0 0 4.04 1.18 8.16 8.16 0 0 0 7.42-4.41c.8-1.46 1.2-3.25 1.2-5.39 0-2.04-.41-3.77-1.22-5.2a8.42 8.42 0 0 0-7.4-4.35c-1.47 0-2.81.37-4.04 1.11-.63.39-1.2.85-1.7 1.37V.42h-5.44v26.23h5.44V16.8c.5.55 1.07 1.03 1.7 1.44Zm-1.7-8.02-2.34.05v.28a9.2 9.2 0 0 0 2.34 6.25v-6.38c0 .87.21 1.62.63 2.27a4.41 4.41 0 0 0 3.71 2.02 4.4 4.4 0 0 0 3.11-1.23c.88-.82 1.32-2.11 1.32-3.86s-.44-3.02-1.31-3.82a4.46 4.46 0 0 0-3.12-1.2 4.47 4.47 0 0 0-3.7 1.98 3.98 3.98 0 0 0-.64 2.25V2.55a8.83 8.83 0 0 0-2.34 6.14l2.34.14v1.38Z"/></g></svg>